<?xml version="1.0" standalone="no"?>
<!DOCTYPE svg PUBLIC "-//W3C//DTD SVG 20010904//EN"
 "http://www.w3.org/TR/2001/REC-SVG-20010904/DTD/svg10.dtd">
<svg version="1.0" xmlns="http://www.w3.org/2000/svg"
 width="498.000000pt" height="498.000000pt" viewBox="0 0 498.000000 498.000000"
 preserveAspectRatio="xMidYMid meet">
<metadata>
Created by potrace 1.14, written by Peter Selinger 2001-2017
</metadata>
<g transform="translate(0.000000,498.000000) scale(0.100000,-0.100000)"
fill="#000000" stroke="none">
<path d="M1748 3797 c-26 -20 -46 -61 -44 -89 2 -26 0 -27 -41 -23 -28 2 -43
-1 -44 -8 0 -7 -2 -20 -4 -30 -2 -10 7 -24 22 -34 30 -20 83 -27 83 -12 0 6
-6 9 -13 6 -22 -8 -77 23 -77 44 0 14 7 19 28 19 15 0 33 -5 39 -11 19 -19 30
-2 27 42 -2 33 3 47 23 66 30 31 42 22 50 -36 3 -22 10 -41 14 -41 5 0 9 4 9
10 0 14 42 50 52 44 4 -3 3 -14 -3 -25 -12 -24 -2 -40 11 -19 11 17 13 54 3
63 -3 4 -22 -3 -41 -15 -24 -15 -33 -17 -30 -7 12 34 -37 78 -64 56z"/>
<path d="M2206 3662 c-4 -3 -44 -9 -116 -16 -19 -2 -35 -5 -35 -6 0 -2 -11 -4
-25 -5 -14 -2 -43 -5 -65 -8 -22 -3 -60 -8 -85 -12 -79 -10 -75 -4 -74 -116 0
-75 4 -103 14 -109 12 -8 12 -10 -1 -15 -10 -4 -16 -18 -16 -33 0 -58 -14 -83
-58 -102 -60 -26 -78 -67 -71 -167 3 -47 10 -79 18 -84 7 -5 9 -9 4 -9 -15 0
17 -32 41 -41 23 -9 23 -9 7 -41 -18 -35 -24 -115 -11 -160 7 -26 5 -27 -48
-38 -49 -10 -57 -16 -79 -53 -33 -58 -40 -98 -23 -138 22 -53 47 -68 174 -105
396 -115 541 -157 568 -164 17 -5 105 -31 197 -58 l168 -50 92 33 c51 19 224
80 383 137 255 91 290 106 287 123 -8 54 -3 112 12 147 4 9 8 22 10 30 1 7 5
19 9 26 7 11 -27 32 -52 32 -11 0 -27 68 -25 105 2 44 7 59 24 71 15 12 -5 20
-98 39 -39 8 -41 13 -45 87 -2 32 -6 60 -9 63 -3 4 -4 37 -2 75 l5 68 -30 7
c-17 4 -35 4 -40 1 -5 -4 -11 -2 -13 3 -1 5 -21 12 -43 15 -22 2 -65 10 -95
17 -30 6 -66 13 -80 14 -14 2 -26 4 -27 5 -4 3 -9 4 -58 13 -22 4 -63 12 -91
18 l-51 10 13 40 c23 64 20 182 -4 221 -24 39 -58 50 -242 82 -14 3 -25 5 -25
6 0 2 -64 16 -125 26 -44 8 -52 10 -70 17 -15 6 -88 6 -94 -1z"/>
<path d="M2888 3419 c-38 -27 -68 -54 -68 -59 0 -6 30 13 68 41 83 64 89 69
77 69 -6 -1 -40 -23 -77 -51z"/>
<path d="M2929 3346 c-2 -3 -18 -8 -34 -11 -17 -3 -35 -7 -42 -9 -34 -6 -23
-18 12 -11 46 8 107 33 84 34 -9 1 -18 -1 -20 -3z"/>
<path d="M3332 3045 c-12 -15 -18 -33 -15 -41 7 -20 22 -18 18 4 -3 19 12 42
27 42 6 0 7 -15 3 -37 -6 -36 -6 -37 12 -22 22 18 45 19 51 1 2 -7 -9 -18 -26
-24 -29 -11 -29 -13 -15 -35 14 -21 14 -23 -2 -29 -9 -4 -21 -2 -28 5 -6 6
-16 11 -22 11 -5 -1 0 -9 12 -19 32 -27 65 -17 61 18 -2 18 5 33 22 47 21 19
22 24 11 38 -7 9 -21 16 -30 16 -9 0 -21 10 -26 22 -14 32 -30 32 -53 3z"/>
<path d="M1873 2282 c-73 -20 -92 -33 -31 -21 24 5 60 11 81 15 39 7 62 25 30
23 -10 0 -46 -8 -80 -17z"/>
<path d="M1952 2234 c-29 -20 -51 -38 -48 -41 6 -6 115 59 116 70 0 13 -15 7
-68 -29z"/>
<path d="M2044 2206 c-20 -31 -35 -59 -32 -62 3 -2 22 20 43 51 20 31 35 59
32 62 -3 3 -22 -20 -43 -51z"/>
<path d="M3010 2071 c-6 -12 -13 -75 -15 -139 -2 -64 -4 -121 -4 -127 -1 -5
-23 40 -49 100 -36 85 -52 111 -68 113 -36 5 -44 -20 -48 -134 -2 -89 0 -111
13 -122 9 -8 10 -11 4 -7 -7 3 -13 2 -13 -3 0 -14 11 -21 26 -15 10 4 14 24
14 76 0 39 3 67 7 64 3 -4 17 -37 30 -74 13 -37 33 -77 45 -90 34 -36 85 -26
86 17 0 8 4 62 8 120 11 151 9 209 -9 227 -13 14 -16 13 -27 -6z m-157 -76
c-3 -9 -8 -14 -10 -11 -3 3 -2 9 2 15 9 16 15 13 8 -4z m141 -294 c-2 -3 -12
3 -22 13 -16 17 -16 18 5 5 12 -7 20 -15 17 -18z"/>
<path d="M2373 2068 c-6 -7 -11 -76 -12 -161 -1 -96 -6 -156 -14 -168 -17 -28
13 -50 51 -40 28 7 70 6 110 -3 12 -3 22 -1 22 5 0 5 5 8 12 6 15 -3 23 32 10
45 -5 5 -33 11 -61 13 -29 2 -56 6 -59 10 -3 3 -7 29 -8 58 -10 208 -23 270
-51 235z"/>
<path d="M3205 2016 c-39 -36 -72 -63 -74 -60 -3 2 -6 19 -7 37 -1 17 -3 34
-4 37 -1 3 -2 9 -1 13 1 5 -6 7 -16 5 -12 -2 -18 -15 -20 -43 -2 -22 -5 -57
-7 -77 -3 -24 0 -38 7 -38 8 0 8 -3 2 -8 -16 -11 -13 -83 3 -77 9 3 11 -1 8
-13 -4 -13 -1 -19 9 -19 10 0 19 12 22 30 l6 29 68 -71 c62 -64 71 -70 89 -59
11 7 20 16 20 21 0 17 -38 65 -93 117 l-58 56 43 41 c69 65 99 103 96 120 -6
31 -24 23 -93 -41z"/>
<path d="M1592 2054 c-53 -17 -56 -24 -58 -157 -4 -173 8 -194 107 -181 81 10
92 13 100 26 14 22 -7 31 -73 34 -35 2 -65 3 -67 3 -3 1 0 6 6 12 6 6 28 13
49 16 48 6 63 18 57 44 -5 16 -13 19 -50 17 -24 -1 -46 -5 -49 -10 -17 -26
-23 3 -28 117 l-1 30 67 -1 c37 0 65 3 62 8 -3 4 1 5 9 2 21 -8 29 10 14 30
-15 21 -96 26 -145 10z"/>
<path d="M2274 2058 c-15 -7 -28 -33 -44 -86 -43 -140 -83 -214 -108 -198 -11
7 -23 61 -28 131 -5 74 -14 105 -29 105 -8 0 -17 -4 -20 -10 -3 -5 0 -10 7
-10 10 0 10 -2 0 -8 -29 -19 -33 -177 -5 -224 36 -62 123 -53 153 16 8 17 22
49 32 71 l17 40 -1 -74 c0 -61 3 -77 18 -88 40 -29 54 24 57 220 1 108 -10
133 -49 115z m-191 -309 l22 -21 -22 11 c-12 6 -25 16 -28 21 -11 17 5 11 28
-11z"/>
<path d="M1836 2048 c-14 -8 -14 -11 -2 -24 8 -8 21 -14 28 -14 21 0 78 -59
80 -83 2 -37 -1 -61 -13 -83 -13 -26 -85 -68 -93 -55 -3 4 -8 44 -10 87 -5 77
-11 119 -22 158 -6 16 -8 17 -22 3 -20 -20 -26 -252 -8 -289 22 -44 128 -25
188 35 67 67 57 192 -18 242 -37 24 -87 35 -108 23z"/>
<path d="M2661 2041 c-44 -44 -75 -145 -80 -262 -3 -61 9 -81 31 -51 16 22 34
30 93 38 41 5 46 4 54 -19 28 -72 56 -30 48 71 -14 185 -82 287 -146 223z m64
-122 c9 -40 13 -74 10 -78 -4 -3 -29 -11 -56 -17 l-49 -11 6 26 c23 104 49
165 65 155 4 -2 15 -36 24 -75z"/>
<path d="M3399 2029 c-32 -42 -46 -78 -59 -151 -22 -118 -10 -196 22 -150 15
22 66 39 113 38 23 -1 31 -6 33 -23 3 -17 9 -22 25 -19 20 3 22 9 21 62 -2 86
-19 174 -42 219 -32 63 -76 72 -113 24z m59 -51 c0 -7 3 -24 7 -38 4 -14 8
-35 10 -47 2 -12 6 -26 9 -31 8 -13 -12 -28 -44 -34 -14 -3 -33 -9 -42 -13
-15 -6 -17 -2 -12 32 5 43 10 62 30 110 14 32 40 45 42 21z"/>
<path d="M1249 1628 c-29 -18 -47 -44 -52 -75 -1 -10 -5 -22 -8 -28 -7 -12 -3
-201 4 -232 12 -47 42 -83 76 -91 24 -6 2336 -5 2403 0 32 3 68 13 82 21 26
17 51 79 42 102 -3 8 -2 16 2 19 6 3 8 131 2 131 -1 0 -3 16 -4 36 -3 58 -24
96 -64 116 -34 16 -66 18 -377 16 -187 -1 -355 -4 -372 -6 -18 -2 -33 0 -33 5
0 5 -5 6 -11 2 -7 -4 -134 -6 -283 -6 -1464 7 -1377 8 -1407 -10z"/>
</g>
</svg>
